<?xml version="1.0" standalone="no"?>
<!DOCTYPE svg PUBLIC "-//W3C//DTD SVG 20010904//EN"
 "http://www.w3.org/TR/2001/REC-SVG-20010904/DTD/svg10.dtd">
<svg version="1.0" xmlns="http://www.w3.org/2000/svg"
 width="838.000000pt" height="838.000000pt" viewBox="0 0 838.000000 838.000000"
 preserveAspectRatio="xMidYMid meet">
<metadata>
Created by potrace 1.14, written by Peter Selinger 2001-2017
</metadata>
<g transform="translate(0.000000,838.000000) scale(0.100000,-0.100000)"
fill="#000000" stroke="none">
<path d="M5379 6737 c-90 -31 -169 -80 -254 -159 -91 -85 -142 -151 -199 -258
-120 -225 -146 -445 -72 -604 30 -65 72 -109 138 -142 29 -15 82 -46 118 -69
93 -60 214 -132 295 -176 l70 -39 -395 2 c-287 1 -413 -2 -460 -11 -111 -22
-339 -100 -525 -181 -41 -17 -56 -19 -174 -21 -229 -3 -416 -54 -556 -152 -52
-37 -92 -75 -344 -331 -135 -136 -252 -253 -258 -260 -7 -6 -48 -51 -90 -101
-43 -49 -83 -95 -89 -101 -5 -7 -21 -25 -35 -40 -22 -26 -41 -33 -199 -66 -96
-21 -231 -46 -300 -58 -69 -11 -138 -22 -155 -25 -117 -21 -256 -46 -290 -50
-343 -50 -489 -102 -623 -221 -118 -106 -224 -296 -237 -426 -2 -21 -27 -91
-56 -156 -46 -104 -52 -125 -52 -187 0 -62 5 -108 18 -155 2 -8 11 -71 20
-140 18 -142 27 -184 57 -255 29 -72 82 -132 141 -162 29 -14 54 -29 57 -32 3
-4 16 -15 30 -24 22 -15 23 -17 5 -18 -11 0 -27 -2 -35 -3 -8 -2 -59 -6 -112
-10 -53 -4 -105 -8 -115 -10 -10 -2 -49 -7 -88 -10 -38 -4 -83 -9 -100 -11
-68 -11 -92 -15 -140 -20 -80 -10 -302 -63 -341 -81 -40 -19 -41 -38 -4 -65
38 -29 185 -79 280 -95 14 -3 41 -9 60 -14 19 -5 51 -12 70 -15 19 -3 42 -8
50 -10 8 -2 30 -7 48 -10 17 -3 47 -7 65 -10 17 -3 39 -8 47 -10 8 -2 38 -6
65 -10 28 -3 75 -10 105 -15 52 -8 111 -16 190 -25 19 -3 53 -7 75 -10 22 -2
67 -7 100 -10 33 -3 74 -8 90 -10 17 -2 66 -7 110 -10 44 -4 100 -8 125 -10
323 -27 1593 -27 2095 0 44 2 132 7 195 10 202 10 267 18 284 35 8 8 4 12 -12
16 -12 4 -22 10 -22 13 0 17 91 50 155 56 39 4 86 8 106 10 37 3 135 13 199
20 19 2 67 7 105 10 39 3 86 8 105 11 19 2 55 7 80 9 25 2 70 7 100 10 30 3
73 8 95 10 22 2 83 9 135 15 52 6 113 13 135 15 96 10 148 17 275 35 141 20
181 26 265 35 28 3 68 8 90 11 22 2 58 7 80 10 22 2 51 7 65 9 14 2 54 7 90
10 36 4 76 8 90 10 14 2 50 6 80 10 30 3 71 8 90 10 19 2 60 7 90 10 30 3 72
8 93 10 95 12 118 15 212 25 55 6 111 13 125 15 14 2 33 4 43 4 33 2 17 19
-25 26 -82 14 -72 24 17 19 230 -12 909 -5 1007 11 12 2 62 6 111 10 61 5 87
11 87 20 0 17 -22 25 -67 25 l-35 0 48 37 c57 43 74 61 119 129 67 101 115
260 115 382 0 32 5 63 11 69 22 22 37 123 38 256 2 120 -1 147 -29 258 -17 68
-43 184 -56 259 -36 195 -61 285 -100 367 -46 95 -135 190 -216 233 -35 18
-79 47 -98 65 -34 32 -100 54 -205 70 -57 8 -156 25 -183 31 -22 5 -21 6 18
33 144 97 264 281 311 477 34 143 21 323 -31 424 -35 68 -96 116 -325 255 -44
27 -296 193 -560 370 -264 176 -547 361 -630 410 -188 112 -515 324 -560 363
-80 71 -215 90 -336 49z m1890 -4377 c1 -5 -143 -5 -263 -1 -35 2 -9 12 40 17
212 22 218 21 223 -16z"/>
</g>
</svg>
